<svg width="111" height="100" viewBox="0 0 111 100" fill="none" xmlns="http://www.w3.org/2000/svg">
<path d="M82.0667 99.906H29.5334C14.8667 99.906 2.60006 86.4393 1.40006 68.906C0.533389 56.7063 0.666722 44.4396 1.73339 32.0396C3.13339 15.9063 13.8001 3.30624 27.2001 1.77291C46.6667 -0.427091 65.8667 -0.627091 84.7333 1.43957C98.4 2.97291 109.2 16.1063 110.267 32.5729C111.067 44.7729 111 56.7063 110.267 68.4393C109.133 86.1727 96.8667 99.906 82.0667 99.906Z" fill="#5251FC"/>
<mask id="mask0_114_5749" style="mask-type:alpha" maskUnits="userSpaceOnUse" x="0" y="0" width="111" height="100">
<path d="M82.0667 99.906H29.5334C14.8667 99.906 2.60006 86.4393 1.40006 68.906C0.533389 56.7063 0.666722 44.4396 1.73339 32.0396C3.13339 15.9063 13.8001 3.30624 27.2001 1.77291C46.6667 -0.427091 65.8667 -0.627091 84.7333 1.43957C98.4 2.97291 109.2 16.1063 110.267 32.5729C111.067 44.7729 111 56.7063 110.267 68.4393C109.133 86.1727 96.8667 99.906 82.0667 99.906Z" fill="#5251FC"/>
</mask>
<g mask="url(#mask0_114_5749)">
<g clip-path="url(#clip0_114_5749)">
<path d="M64.9167 74.1538H46.9846C35.8795 74.1538 30.3269 74.1538 26.959 70.6949C23.5 67.2359 23.5 61.6833 23.5 50.6692V48.5756C23.5 37.4705 23.5 31.9179 26.8679 28.459C30.3269 25 35.9705 25 46.9846 25H64.9167C76.0218 25 81.6654 25 85.1244 28.459C88.5833 31.9179 88.5833 37.4705 88.5833 48.4846V50.5782C88.5833 61.6833 88.5833 67.2359 85.1244 70.6949C81.5744 74.1538 76.0218 74.1538 65.0987 74.1538H64.9167Z" fill="#5FEDFF"/>
<mask id="mask1_114_5749" style="mask-type:alpha" maskUnits="userSpaceOnUse" x="23" y="25" width="66" height="50">
<path d="M64.9167 74.1538H46.9846C35.8795 74.1538 30.3269 74.1538 26.959 70.6949C23.5 67.2359 23.5 61.6833 23.5 50.6692V48.5756C23.5 37.4705 23.5 31.9179 26.8679 28.459C30.3269 25 35.9705 25 46.9846 25H64.9167C76.0218 25 81.6654 25 85.1244 28.459C88.5833 31.9179 88.5833 37.4705 88.5833 48.4846V50.5782C88.5833 61.6833 88.5833 67.2359 85.1244 70.6949C81.5744 74.1538 76.0218 74.1538 65.0987 74.1538H64.9167Z" fill="#5FEDFF"/>
</mask>
<g mask="url(#mask1_114_5749)">
<path d="M33.9397 48.0896C34.3891 59.9958 30.9436 72.0356 28.8838 76.4241C67.9824 98.8627 70.0797 87.4908 66.241 79C64.4433 73.5048 63.9939 66.0253 63.9939 62.9724L33.9397 48.0896Z" fill="#FFA38A"/>
<path d="M27.7603 39.6223C16.0757 40.5382 14.4653 31.9901 15.1207 27.6016C15.3771 25.8844 18.2104 23.1941 26.075 22.7361C35.9059 22.1637 44.6132 -3.30869 46.0176 -3.30869C76.9145 -9.03283 84.7791 22.1637 83.9365 39.6223C83.0938 57.0809 71.8586 65.3809 53.8822 63.6637C39.5011 62.2899 30.4755 47.0637 27.7603 39.6223Z" fill="#FFA38A"/>
<path fill-rule="evenodd" clip-rule="evenodd" d="M59.6672 21.1467C60.2876 20.8294 61.065 21.0438 61.4034 21.6256C61.8076 22.3204 62.5248 23.435 63.3401 24.483C64.1897 25.575 65.0197 26.4274 65.6307 26.7711C66.0895 27.0292 66.4987 27.3752 66.7516 27.8391C67.0152 28.3225 67.0527 28.8313 66.9404 29.2971C66.7369 30.1415 66.0568 30.812 65.4638 31.268C64.8252 31.759 64.054 32.1781 63.3257 32.4769C62.6303 32.7622 61.8238 33 61.1331 33C60.4264 33 59.8534 32.4628 59.8534 31.8C59.8534 31.1373 60.4264 30.6 61.1331 30.6C61.2956 30.6 61.7155 30.5179 62.2998 30.2782C62.8513 30.0519 63.4131 29.7411 63.8409 29.4121C64.0537 29.2485 64.2114 29.0972 64.3163 28.9688C64.3457 28.9329 64.369 28.901 64.3874 28.8734C64.367 28.8601 64.3427 28.8453 64.3139 28.8291C63.2186 28.2129 62.129 26.9985 61.2723 25.8973C60.3813 24.752 59.6055 23.5466 59.1565 22.7748C58.8181 22.193 59.0467 21.4641 59.6672 21.1467Z" fill="#F07877"/>
<path d="M33.396 60.3239C33.943 56.9645 34.1084 54.9559 34.2078 51.2002C39.1866 58.9162 48.0078 62.5831 51.796 63.452C43.1372 63.6605 35.6509 61.6273 33.396 60.3239Z" fill="#EE7876"/>
<path d="M60.5336 37.6522C51.3001 36.7598 50.5306 38.4454 50.4344 39.437C48.7031 43.304 60.4856 52.2161 67.1702 45.9812C73.2298 40.3294 69.7672 38.5446 60.5336 37.6522Z" fill="#121E48"/>
<path d="M69.8521 39.7808C69.7418 41.3352 65.251 42.3078 59.8216 41.9533C54.3922 41.5987 50.0802 40.0512 50.1905 38.4968C50.3007 36.9424 54.7915 35.9698 60.2209 36.3244C65.6503 36.679 69.9623 38.2265 69.8521 39.7808Z" fill="white"/>
<path d="M65.1884 57.3332C60.5773 57.3332 54.8742 48.8494 54.8742 45.839C54.5916 43.0344 59.575 43.0802 62.7106 44.4273C63.1424 44.6128 63.6343 44.6777 64.1066 44.6098C73.2538 43.2956 70.8059 57.3332 65.1884 57.3332Z" fill="#FF0080"/>
</g>
<path d="M124.724 52.6718C125.328 52.6718 125.907 52.432 126.333 52.0052C126.76 51.5785 127 50.9997 127 50.3961V48.7577C127.022 48.3051 126.902 47.857 126.658 47.4753C126.414 47.0936 126.058 46.7973 125.638 46.6273C125.218 46.4573 124.755 46.4221 124.314 46.5265C123.873 46.631 123.476 46.8699 123.177 47.2102C122.722 47.5743 122.54 48.1205 122.54 48.7577V50.3961C122.527 50.6906 122.575 50.9845 122.679 51.2601C122.783 51.5358 122.942 51.7875 123.147 52.0001C123.351 52.2127 123.596 52.3818 123.867 52.4972C124.138 52.6126 124.43 52.672 124.724 52.6718ZM105.882 63.6859C106.47 63.6623 107.025 63.4122 107.433 62.988C107.84 62.5638 108.067 61.9983 108.067 61.4102V37.7436C108.067 37.1521 107.832 36.5848 107.413 36.1666C106.995 35.7484 106.428 35.5134 105.837 35.5134C105.245 35.5134 104.678 35.7484 104.26 36.1666C103.841 36.5848 103.606 37.1521 103.606 37.7436V61.4102C103.594 61.7125 103.644 62.0142 103.753 62.2961C103.863 62.578 104.03 62.834 104.244 63.048C104.458 63.2619 104.714 63.4291 104.996 63.5389C105.278 63.6487 105.58 63.6987 105.882 63.6859ZM115.349 57.3141C115.921 57.2916 116.464 57.0542 116.869 56.6493C117.274 56.2444 117.511 55.7017 117.533 55.1295V44.1154C117.533 43.5118 117.294 42.933 116.867 42.5062C116.44 42.0795 115.861 41.8397 115.258 41.8397C114.654 41.8397 114.075 42.0795 113.649 42.5062C113.222 42.933 112.982 43.5118 112.982 44.1154V55.0384C112.982 55.3451 113.044 55.6486 113.164 55.9308C113.284 56.213 113.459 56.4681 113.68 56.6806C113.902 56.8932 114.163 57.0588 114.45 57.1677C114.737 57.2765 115.042 57.3263 115.349 57.3141ZM96.4154 60.1359C97.5987 60.1359 98.6 58.7705 98.6 57.132V42.0218C98.6 40.3833 97.6898 39.0179 96.4154 39.0179C95.1411 39.0179 94.1398 40.3833 94.1398 42.0218V57.132C94.1398 58.7705 95.1411 60.1359 96.4154 60.1359Z" fill="#00DC7F"/>
<path d="M-14.3335 52.0049C-13.9067 52.4317 -13.3279 52.6714 -12.7244 52.6714C-12.1208 52.6714 -11.542 52.4317 -11.1152 52.0049C-10.6885 51.5781 -10.4487 50.9993 -10.4487 50.3958V48.7573C-10.4487 48.1538 -10.6885 47.575 -11.1152 47.1482C-11.542 46.7214 -12.1208 46.4817 -12.7244 46.4817C-13.3279 46.4817 -13.9067 46.7214 -14.3335 47.1482C-14.7602 47.575 -15 48.1538 -15 48.7573V50.3958C-15 50.9993 -14.7602 51.5781 -14.3335 52.0049Z" fill="#00DC7F"/>
<path d="M4.56736 62.9876C4.97463 63.4119 5.53033 63.662 6.11795 63.6855C6.72149 63.6855 7.30031 63.4458 7.72707 63.019C8.15384 62.5922 8.39359 62.0134 8.39359 61.4099V37.7432C8.28913 37.2288 8.01004 36.7663 7.60361 36.4341C7.19717 36.1019 6.68839 35.9204 6.16346 35.9204C5.63854 35.9204 5.12976 36.1019 4.72332 36.4341C4.31688 36.7663 4.03779 37.2288 3.93333 37.7432V61.4099C3.93286 61.998 4.16008 62.5634 4.56736 62.9876Z" fill="#00DC7F"/>
<path d="M-4.86857 56.649C-4.46364 57.0539 -3.92093 57.2913 -3.34872 57.3137C-2.74518 57.3137 -2.16636 57.074 -1.7396 56.6472C-1.31283 56.2204 -1.07308 55.6416 -1.07308 55.0381V44.115C-1.00596 43.7845 -1.01315 43.4432 -1.09412 43.1158C-1.17509 42.7884 -1.32781 42.4831 -1.54124 42.222C-1.75467 41.9609 -2.02347 41.7505 -2.32819 41.606C-2.63292 41.4615 -2.96595 41.3865 -3.3032 41.3865C-3.64045 41.3865 -3.97349 41.4615 -4.27822 41.606C-4.58294 41.7505 -4.85174 41.9609 -5.06517 42.222C-5.2786 42.4831 -5.43132 42.7884 -5.51229 43.1158C-5.59326 43.4432 -5.60044 43.7845 -5.53333 44.115V55.1291C-5.51087 55.7013 -5.27349 56.244 -4.86857 56.649Z" fill="#00DC7F"/>
<path d="M13.4 57.1317C13.4 58.7701 14.4013 60.1355 15.5846 60.1355C16.859 60.1355 17.8603 58.7701 17.8603 57.1317V42.0214C17.8603 40.3829 16.859 39.0176 15.5846 39.0176C14.3103 39.0176 13.4 40.3829 13.4 42.0214V57.1317Z" fill="#00DC7F"/>
</g>
</g>
<defs>
<clipPath id="clip0_114_5749">
<rect width="142" height="49.1538" fill="white" transform="translate(-15 25)"/>
</clipPath>
</defs>
</svg>
